<?xml version="1.0" encoding="utf-8"?>
<!-- Generator: Adobe Illustrator 19.0.0, SVG Export Plug-In . SVG Version: 6.00 Build 0)  -->
<svg version="1.1" id="Layer_1" xmlns="http://www.w3.org/2000/svg" xmlns:xlink="http://www.w3.org/1999/xlink" x="0px" y="0px"
	 viewBox="-257 192 284 284" style="enable-background:new -257 192 284 284;" xml:space="preserve">
<style type="text/css">
	.st0{fill:#F3F2F1;}
	.st1{clip-path:url(#SVGID_2_);}
	.st2{fill:#F3C5AD;}
	.st3{fill:#1A1718;fill-opacity:0.3;}
	.st4{fill:#2196F3;}
	.st5{fill:#FFFFFF;}
	.st6{fill:#D5A691;}
	.st7{fill:#1A1718;fill-opacity:0.38;}
	.st8{fill:#2C2723;}
	.st9{fill:#F6AC2C;fill-opacity:0.5;}
	.st10{fill:#F3C5AD;fill-opacity:5.000000e-002;}
	.st11{fill:#1A1718;fill-opacity:5.000000e-002;}
	.st12{fill:none;stroke:#A48677;stroke-width:3;}
</style>
<circle id="oval2" class="st0" cx="-115" cy="334" r="141"/>
<g>
	<g>
		<g>
			<g>
				<defs>
					<circle id="SVGID_1_" cx="-115" cy="334" r="141"/>
				</defs>
				<clipPath id="SVGID_2_">
					<use xlink:href="#SVGID_1_"  style="overflow:visible;"/>
				</clipPath>
				<g id="group" class="st1">
					<g id="page1">
						<g id="layer_1">
							<g id="layer_1_1_">
								<path id="bezier2" class="st2" d="M-149.8,427.3c11.1,4.1,13.2,25.6,4.8,48s-24.1,37.2-35.2,33c-11.1-4.1-13.2-25.6-4.8-48
									C-176.6,438-160.9,423.2-149.8,427.3z"/>
								<path id="bezier" d="M-170.6,506.6v17.1h113.3v-17.1H-170.6z"/>
								<path id="bezier3" class="st3" d="M-186.5,480.4c-1.7-1.1-1.7-5.5-0.2-10.2c-0.2,0.4-0.3,0.8-0.5,1.2
									c-1.9,5.1-2,10.2-0.2,11.4c1.8,1.2,4.9-1.9,6.8-7c0.1-0.4,0.3-0.8,0.4-1.2C-182.1,479-184.8,481.5-186.5,480.4L-186.5,480.4
									z"/>
								<path id="bezier4" class="st2" d="M-84.2,415.3c-11.1,4.1-13.2,25.6-4.8,48s24.2,37.2,35.2,33c11.1-4.1,13.2-25.6,4.8-48
									C-57.4,426-73.1,411.2-84.2,415.3z"/>
								<path id="bezier5" class="st3" d="M-60.4,489.3c-3.3,0-5.9-5-6.4-11.5c0,0.6-0.1,1.1-0.1,1.7c0,7.3,2.9,13.3,6.4,13.3
									s6.4-5.9,6.4-13.3c0-0.6,0-1.1-0.1-1.7C-54.5,484.2-57.2,489.3-60.4,489.3L-60.4,489.3z"/>
								<path id="bezier6" class="st4" d="M-46.6,441.4l-19.6-27.8l-15.8,7.2l-1.4-4.6h-62.9l-1.1,4l-14.4-6.6l-19.6,27.8l25,11.5
									l-15.4,55.8H-55l-17-55.6L-46.6,441.4z"/>
								<path id="bezier7" class="st5" d="M-113.9,445.7c10,0,18.2-8.1,18.2-18.2c0-10-8.1-18.2-18.2-18.2c-10,0-18.2,8.1-18.2,18.2
									C-132.1,437.5-123.9,445.7-113.9,445.7z"/>
								<path id="bezier8" class="st6" d="M-113.9,442.4c8.3,0,14.9-6.2,14.9-13.9s-6.7-13.9-14.9-13.9s-14.9,6.2-14.9,13.9
									S-122.2,442.4-113.9,442.4z"/>
								<path id="bezier9" class="st2" d="M-209.6,361.3c8,0,14.4-6.5,14.4-14.4c0-8-6.5-14.4-14.4-14.4S-224,339-224,346.9
									S-217.5,361.3-209.6,361.3z"/>
								<path id="bezier10" class="st2" d="M-21.4,361.3c8,0,14.4-6.5,14.4-14.4c0-8-6.5-14.4-14.4-14.4c-8,0-14.4,6.5-14.4,14.4
									C-35.9,354.8-29.4,361.3-21.4,361.3z"/>
								<path id="bezier11" class="st2" d="M-114.4,428.6c52.8,0,95.7-33.5,95.7-74.8S-61.6,279-114.4,279s-95.7,33.5-95.7,74.8
									S-167.3,428.6-114.4,428.6z"/>
								<path id="bezier12" class="st7" d="M-158.8,356.8c0,9.3-7.4-12-16.6-12s-16.6,21.3-16.6,12s7.4-16.9,16.6-16.9
									S-158.8,347.5-158.8,356.8L-158.8,356.8z"/>
								<path id="bezier13" class="st7" d="M-31.6,356.8c0,9.3-7.4-12-16.6-12c-9.1,0-16.6,21.3-16.6,12s7.4-16.9,16.6-16.9
									S-31.6,347.5-31.6,356.8L-31.6,356.8z"/>
								<path id="bezier14" class="st3" d="M-49.8,327.8c11.8,0,21.5,8.1,22.4,18.5c0-0.5,0.1-1,0.1-1.4c0-11-10.1-19.9-22.4-19.9
									c-12.4,0-22.5,8.9-22.5,19.9c0,0.5,0,1,0.1,1.4C-71.3,336-61.6,327.8-49.8,327.8L-49.8,327.8z"/>
								<path id="bezier15" class="st3" d="M-175.9,327.8c11.9,0,21.6,8.1,22.4,18.5c0-0.5,0.1-1,0.1-1.4c0-11-10.1-19.9-22.4-19.9
									c-12.4,0-22.4,8.9-22.4,19.9c0,0.5,0,1,0.1,1.4C-197.4,336-187.8,327.8-175.9,327.8L-175.9,327.8z"/>
								<path id="bezier16_1_" d="M-210.1,293.3h191.2v4.9l0,0l0,0c0.1-1,0.1-2.1,0.1-3.1"/>
								<path id="bezier17" d="M-18.8,291.8H-210h-0.1v59.8c46.2-86,139.4-107.2,191.3,0v-54.9L-18.8,291.8L-18.8,291.8z"/>
								<path id="bezier18" class="st8" d="M-115,510.8v13.9h1.1v-13.9L-115,510.8L-115,510.8z"/>
								<path id="bezier19" class="st3" d="M-113.9,364.5c2.6,0,4.8,1.8,5.2,4.3c0.1-0.4,0.1-0.7,0.1-1.1c0-3-2.4-5.3-5.3-5.3
									c-3,0-5.3,2.4-5.3,5.3c0,0.4,0,0.7,0.1,1.1C-118.6,366.3-116.5,364.5-113.9,364.5L-113.9,364.5z"/>
								<path id="bezier20" class="st9" d="M-52.4,389c2.1,0,3.7-1.7,3.7-3.7c0-2.1-1.7-3.7-3.7-3.7c-2.1,0-3.7,1.7-3.7,3.7
									C-56.2,387.4-54.5,389-52.4,389z"/>
								<path id="bezier21" class="st9" d="M-46,393.3c0.9,0,1.6-0.7,1.6-1.6s-0.7-1.6-1.6-1.6c-0.9,0-1.6,0.7-1.6,1.6
									C-47.6,392.6-46.9,393.3-46,393.3z"/>
								<path id="bezier22" class="st9" d="M-60.4,393.3c1.2,0,2.1-1,2.1-2.1s-1-2.1-2.1-2.1c-1.2,0-2.1,1-2.1,2.1
									S-61.6,393.3-60.4,393.3z"/>
								<path id="bezier23" class="st9" d="M-55.6,392.3c0.3,0,0.5-0.2,0.5-0.5s-0.2-0.5-0.5-0.5s-0.5,0.2-0.5,0.5
									C-56.2,392-55.9,392.3-55.6,392.3z"/>
								<path id="bezier24" class="st9" d="M-170,389c2.1,0,3.7-1.7,3.7-3.7c0-2.1-1.7-3.7-3.7-3.7c-2.1,0-3.7,1.7-3.7,3.7
									C-173.8,387.4-172.1,389-170,389z"/>
								<path id="bezier25" class="st9" d="M-163.6,393.3c0.9,0,1.6-0.7,1.6-1.6s-0.7-1.6-1.6-1.6c-0.9,0-1.6,0.7-1.6,1.6
									C-165.2,392.6-164.5,393.3-163.6,393.3z"/>
								<path id="bezier26" class="st9" d="M-179.1,393.3c1.2,0,2.1-1,2.1-2.1s-0.9-2.1-2.1-2.1c-1.2,0-2.1,1-2.1,2.1
									S-180.3,393.3-179.1,393.3z"/>
								<path id="bezier27" class="st9" d="M-174.3,392.3c0.3,0,0.5-0.2,0.5-0.5s-0.2-0.5-0.5-0.5s-0.5,0.2-0.5,0.5
									C-174.8,392-174.6,392.3-174.3,392.3z"/>
								<path id="bezier28" class="st10" d="M-180.4,375.2c-8.4,0-15.9,3.6-21.2,9.2c9.1,16,25.1,29,45,36.7
									c3.3-4.7,5.2-10.5,5.2-16.7C-151.3,388.2-164.3,375.2-180.4,375.2L-180.4,375.2z"/>
								<path id="bezier29" class="st10" d="M-48.5,375.2c8.4,0,15.9,3.6,21.2,9.2c-9.1,16-25.1,29-45,36.7
									c-3.3-4.7-5.2-10.5-5.2-16.7C-77.6,388.2-64.6,375.2-48.5,375.2L-48.5,375.2z"/>
								<path id="bezier30" class="st8" d="M-181.8,529c2.7,0,4.8-1.7,4.8-3.7c0-2.1-2.1-3.7-4.8-3.7c-2.6,0-4.8,1.7-4.8,3.7
									S-184.4,529-181.8,529z"/>
								<path id="bezier31" class="st8" d="M-174.3,529c2.7,0,4.8-1.7,4.8-3.7c0-2.1-2.2-3.7-4.8-3.7c-2.7,0-4.8,1.7-4.8,3.7
									S-176.9,529-174.3,529z"/>
								<path id="bezier32" class="st8" d="M-166.8,529c2.7,0,4.8-1.7,4.8-3.7c0-2.1-2.1-3.7-4.8-3.7s-4.8,1.7-4.8,3.7
									S-169.5,529-166.8,529z"/>
								<path id="bezier33" class="st8" d="M-158.3,529c2.7,0,4.8-1.7,4.8-3.7c0-2.1-2.2-3.7-4.8-3.7c-2.7,0-4.8,1.7-4.8,3.7
									S-160.9,529-158.3,529z"/>
								<path id="bezier34" class="st8" d="M-150.8,529c2.7,0,4.8-1.7,4.8-3.7c0-2.1-2.1-3.7-4.8-3.7c-2.6,0-4.8,1.7-4.8,3.7
									S-153.4,529-150.8,529z"/>
								<path id="bezier35" class="st8" d="M-143.3,529c2.7,0,4.8-1.7,4.8-3.7c0-2.1-2.2-3.7-4.8-3.7c-2.7,0-4.8,1.7-4.8,3.7
									S-145.9,529-143.3,529z"/>
								<path id="bezier36" class="st8" d="M-134.7,529c2.7,0,4.8-1.7,4.8-3.7c0-2.1-2.2-3.7-4.8-3.7c-2.7,0-4.8,1.7-4.8,3.7
									C-139.6,527.3-137.4,529-134.7,529z"/>
								<path id="bezier37" class="st8" d="M-127.3,529c2.7,0,4.8-1.7,4.8-3.7c0-2.1-2.2-3.7-4.8-3.7c-2.7,0-4.8,1.7-4.8,3.7
									S-129.9,529-127.3,529z"/>
								<path id="bezier38" class="st8" d="M-119.8,529c2.7,0,4.8-1.7,4.8-3.7c0-2.1-2.1-3.7-4.8-3.7c-2.6,0-4.8,1.7-4.8,3.7
									C-124.6,527.3-122.4,529-119.8,529z"/>
								<path id="bezier39" class="st8" d="M-109.1,529c2.7,0,4.8-1.7,4.8-3.7c0-2.1-2.1-3.7-4.8-3.7c-2.7,0-4.8,1.7-4.8,3.7
									S-111.7,529-109.1,529z"/>
								<path id="bezier40" class="st8" d="M-101.6,529c2.7,0,4.8-1.7,4.8-3.7c0-2.1-2.2-3.7-4.8-3.7c-2.7,0-4.8,1.7-4.8,3.7
									S-104.3,529-101.6,529z"/>
								<path id="bezier41" class="st8" d="M-94.1,529c2.7,0,4.8-1.7,4.8-3.7c0-2.1-2.2-3.7-4.8-3.7c-2.7,0-4.8,1.7-4.8,3.7
									S-96.8,529-94.1,529z"/>
								<path id="bezier42" class="st8" d="M-85.6,529c2.7,0,4.8-1.7,4.8-3.7c0-2.1-2.2-3.7-4.8-3.7c-2.7,0-4.8,1.7-4.8,3.7
									S-88.2,529-85.6,529z"/>
								<path id="bezier43" class="st8" d="M-78.1,529c2.7,0,4.8-1.7,4.8-3.7c0-2.1-2.1-3.7-4.8-3.7c-2.7,0-4.8,1.7-4.8,3.7
									S-80.7,529-78.1,529z"/>
								<path id="bezier44" class="st8" d="M-70.6,529c2.7,0,4.8-1.7,4.8-3.7c0-2.1-2.2-3.7-4.8-3.7c-2.7,0-4.8,1.7-4.8,3.7
									S-73.3,529-70.6,529z"/>
								<path id="bezier45" class="st8" d="M-62.1,529c2.7,0,4.8-1.7,4.8-3.7c0-2.1-2.2-3.7-4.8-3.7c-2.7,0-4.8,1.7-4.8,3.7
									S-64.7,529-62.1,529z"/>
								<path id="bezier46" class="st8" d="M-54.6,529c2.7,0,4.8-1.7,4.8-3.7c0-2.1-2.2-3.7-4.8-3.7c-2.7,0-4.8,1.7-4.8,3.7
									C-59.4,527.3-57.2,529-54.6,529z"/>
								<path id="bezier47" class="st8" d="M-47.1,529c2.7,0,4.8-1.7,4.8-3.7c0-2.1-2.1-3.7-4.8-3.7s-4.8,1.7-4.8,3.7
									C-51.9,527.3-49.7,529-47.1,529z"/>
								<path id="bezier48" class="st11" d="M-113.9,373c24.2,0,43.8-2.2,43.8-4.8c0-2.7-19.6-4.8-43.8-4.8s-43.8,2.1-43.8,4.8
									C-157.7,370.9-138.1,373-113.9,373z"/>
								<path id="bezier49" class="st5" d="M-150.2,510.8c-20.1,0-36.4,6.7-36.4,15h72.7C-113.9,517.5-130.2,510.8-150.2,510.8
									L-150.2,510.8z"/>
								<path id="bezier50" class="st5" d="M-77.6,510.8c-20.1,0-36.3,6.7-36.3,15h72.7C-41.2,517.5-57.5,510.8-77.6,510.8
									L-77.6,510.8z"/>
							</g>
							<path id="bezier52" class="st12" d="M-82.9,392.8c0,6.8-13.4,12.3-29.9,12.3s-29.9-5.5-29.9-12.3s13.4-12.3,29.9-12.3
								S-82.9,386-82.9,392.8L-82.9,392.8z"/>
							<path id="bezier53" class="st2" d="M-146,377.3v15h65.2v-15H-146z"/>
						</g>
					</g>
				</g>
			</g>
		</g>
	</g>
</g>
<path d="M-210.1,293.3c0,0,4.8-48.6,95.1-48.6s96.1,48.6,96.1,48.6"/>
<path d="M-184.7,274.6c-58.3,36.4,26.3-53.8,33.3-48.2L-158,256C-158,256-126.4,238.1-184.7,274.6z"/>
<path d="M-174,265l62.5-20.3c-29.9,1.2-47-3.5-40.6-18.7"/>
</svg>
