<?xml version="1.0" encoding="utf-8"?>
<!-- Generator: Adobe Illustrator 19.0.0, SVG Export Plug-In . SVG Version: 6.00 Build 0)  -->
<svg version="1.1" xmlns="http://www.w3.org/2000/svg" xmlns:xlink="http://www.w3.org/1999/xlink" x="0px" y="0px"
	 viewBox="-178.2 166 440 270" style="enable-background:new -178.2 166 440 270;" xml:space="preserve">
<style type="text/css">
	.st0{fill:#2582C1;}
	.st1{display:none;fill:#2582C1;}
	.st2{fill:#2196F3;}
	.st3{display:none;}
	.st4{display:inline;}
	.st5{fill:#30D6AB;}
</style>
<g id="Layer_1">
	<g id="Layer_4">
		<polygon class="st0" points="149.8,166 -178.2,367 -66.2,435.5 259.7,231.5 		"/>
	</g>
	<polygon id="XMLID_3_" class="st1" points="149.8,166 -66.2,300.9 -66.2,435.5 149.8,300.3 	"/>
	<polygon class="st2" points="149.8,166 149.8,300 -66.2,166 -178.2,233 -178.2,367 -66.2,435.5 -66.2,301 149.8,435.5 261.8,366.6 
		261.8,232.8 	"/>
	<g id="Layer_6">
	</g>
</g>
<g id="Layer_2_1_" class="st3">
	<g class="st4">
		
			<image style="overflow:visible;opacity:0.3;" width="680" height="740" xlink:href="BE89FDC9.png"  transform="matrix(1 0 0 1 -526 -70)">
		</image>
		<g>
			
				<image style="overflow:visible;opacity:0.93;" width="310" height="434" xlink:href="BE89FDCA.png"  transform="matrix(1 0 0 1 -341 83)">
			</image>
			<g>
				<path class="st5" d="M-190.8,233.5h9.3v133.3h-9.3V233.5z"/>
			</g>
		</g>
	</g>
	<g class="st4">
		
			<image style="overflow:visible;opacity:0.3;" width="681" height="745" xlink:href="BE89FDC8.png"  transform="matrix(1 0 0 1 -74 -72)">
		</image>
		<g>
			
				<image style="overflow:visible;opacity:0.93;" width="311" height="435" xlink:href="BE89FDEB.png"  transform="matrix(1 0 0 1 111 83)">
			</image>
			<g>
				<rect x="261.8" y="233.3" class="st5" width="9.3" height="133.9"/>
			</g>
		</g>
	</g>
</g>
<g id="Layer_3_1_">
</g>
</svg>
